<?xml version="1.0" encoding="iso-8859-1"?>
<!-- Generator: Adobe Illustrator 19.0.0, SVG Export Plug-In . SVG Version: 6.00 Build 0)  -->
<svg xmlns="http://www.w3.org/2000/svg" xmlns:xlink="http://www.w3.org/1999/xlink" version="1.1" id="Layer_1" x="0px" y="0px" viewBox="0 0 488.882 488.882" style="enable-background:new 0 0 488.882 488.882;" xml:space="preserve" width="512" height="512">
<g>
	<path style="fill:#FFC9B0;" d="M407.094,231.052c0,20.455-15.753,37.217-35.783,38.82c-1.045,0.089-2.107,0.133-3.17,0.133   c-2.727,0-5.384-0.275-7.952-0.815H125.568c-2.568,0.54-5.225,0.815-7.952,0.815h-0.027c-21.509-0.018-38.926-17.444-38.926-38.953   c0-20.278,15.496-36.934,35.296-38.767c1.204-0.124,2.426-0.177,3.657-0.177c1.638,0,3.241,0.097,4.826,0.292h240.873   c1.585-0.195,3.188-0.292,4.826-0.292c2.311,0,4.578,0.204,6.774,0.593C393.2,195.898,407.094,211.855,407.094,231.052z"/>
	<path style="fill:#E89F87;" d="M374.915,192.701v49.34c0,9.581-1.248,18.905-3.604,27.831c-1.045,0.089-2.107,0.133-3.17,0.133   c-2.727,0-5.384-0.275-7.952-0.815H125.568c-2.568,0.54-5.225,0.815-7.952,0.815h-0.027c-2.373-8.97-3.63-18.33-3.63-27.964   v-49.756c1.204-0.124,2.426-0.177,3.657-0.177c1.638,0,3.241,0.097,4.826,0.292h240.873c1.585-0.195,3.188-0.292,4.826-0.292   C370.452,192.108,372.719,192.312,374.915,192.701z"/>
	<path style="fill:#E89F87;" d="M385.857,239.726c-2.896,0-5.653-1.687-6.882-4.512c-3.133-7.207-12.599-4.902-13.666-4.616   c-3.991,1.133-8.107-1.19-9.237-5.174c-1.132-3.985,1.208-8.139,5.192-9.27c7.938-2.256,24.729-2.418,31.467,13.08   c1.651,3.798-0.089,8.217-3.888,9.868C387.87,239.525,386.855,239.726,385.857,239.726z"/>
	<path style="fill:#E89F87;" d="M103.902,239.724c-0.999,0-2.015-0.201-2.989-0.625c-3.798-1.653-5.537-6.072-3.884-9.87   c3.811-8.754,13.719-16.876,30.088-13.412c4.053,0.857,6.644,4.837,5.786,8.89c-0.858,4.053-4.839,6.645-8.89,5.785   c-3.824-0.809-10.623-1.269-13.23,4.723C109.555,238.039,106.797,239.724,103.902,239.724z"/>
	<path style="fill:#3FA07B;" d="M363.313,438.489v50.394H125.566v-50.394c0-65.651,53.218-118.878,118.869-118.878   c9.289,0,18.33,1.071,27.008,3.082c21.987,5.109,41.627,16.32,57.053,31.736C350.004,375.946,363.313,405.663,363.313,438.489z"/>
	<path style="fill:#5CC67A;" d="M363.314,438.49v50.39h-111.38v-66.09c0-4.14-3.36-7.5-7.5-7.5c-4.15,0-7.5,3.36-7.5,7.5v66.09   h-57.35v-50.39c0-56.36,39.22-103.57,91.86-115.8c21.99,5.11,41.63,16.32,57.05,31.74   C350.004,375.95,363.314,405.66,363.314,438.49z"/>
	<polygon style="fill:#FFE257;" points="362.476,355.491 396.376,432.091 305.996,414.511 244.436,463.491 182.866,414.511    92.486,432.091 126.386,355.491 83.696,330.371 138.046,308.851 350.816,308.851 405.166,330.371  "/>
	<path style="fill:#FFAD42;" d="M195.456,308.851c-1.66,2.79-5.194,4.044-8.29,7.14c-25.308,25.308-21.24,81.59-4.3,98.521   l-90.38,17.58l33.9-76.6l-42.69-25.12l54.35-21.52H195.456z"/>
	<path style="fill:#FFC9B0;" d="M363.311,154.812v100.992c0,57.93-41.44,106.18-96.3,116.72c-7.3,1.41-14.85,2.15-22.58,2.15   c-65.65,0-118.86-53.22-118.86-118.87v-79.32"/>
	<path style="fill:#E89F87;" d="M267.071,372.521c-0.01,0-0.01,0-0.02,0c-7.3,1.41-14.85,2.15-22.58,2.15   c-65.65,0-118.86-53.22-118.86-118.87v-79.32h45.21v79.32C170.821,313.721,212.231,361.961,267.071,372.521z"/>
	<path style="fill:#FF4D4D;" d="M244.438,311.751c-13.771,0-27.542-5.242-38.026-15.726c-2.929-2.929-2.929-7.677,0-10.606   c2.931-2.929,7.679-2.929,10.607,0c15.117,15.118,39.721,15.118,54.838,0c2.931-2.929,7.679-2.929,10.607,0s2.929,7.678,0,10.606   C271.98,306.509,258.21,311.751,244.438,311.751z"/>
	<g>
		<g>
			<path style="fill:#3E5468;" d="M192.652,247.273c-4.143,0-7.5-3.358-7.5-7.5v-29.22c0-4.142,3.357-7.5,7.5-7.5s7.5,3.358,7.5,7.5     v29.22C200.152,243.915,196.795,247.273,192.652,247.273z"/>
			<path style="fill:#3E5468;" d="M296.227,247.273c-4.143,0-7.5-3.358-7.5-7.5v-29.22c0-4.142,3.357-7.5,7.5-7.5s7.5,3.358,7.5,7.5     v29.22C303.727,243.915,300.369,247.273,296.227,247.273z"/>
		</g>
	</g>
	<path style="fill:#FFE257;" d="M427.796,33.531c-72.85,33.12-64.48,142.95-64.48,142.95h-237.75c0,0,8.37-109.83-64.48-142.95   c-7.52-23.82,183.36-96.12,183.36,93.14c0-132.41,93.43-136.8,146.98-119.32C414.416,14.851,430.056,26.381,427.796,33.531z"/>
	<path style="fill:#FF4D4D;" d="M244.446,126.671v49.81h-118.88c0,0,8.37-109.83-64.48-142.95c-2.75-8.71,21.04-23.91,52.32-30.42   C167.656-8.189,244.446,6.631,244.446,126.671z"/>
	<path style="fill:#EA365D;" d="M170.826,176.481h-45.26c0,0,8.37-109.83-64.48-142.95c-2.75-8.71,21.04-23.91,52.32-30.42   C167.836,15.161,187.626,109.241,170.826,176.481z"/>
	<path style="fill:#FFAD42;" d="M391.426,7.351c-119.24,17.31-146.98,119.32-146.98,144.7v-25.38   C244.446-5.739,337.876-10.129,391.426,7.351z"/>
	<circle style="fill:#5CC67A;" cx="441.631" cy="33.535" r="18.837"/>
	<circle style="fill:#5CC67A;" cx="47.251" cy="33.535" r="18.837"/>
</g>















</svg>
